<svg width="20" height="20" viewBox="0 0 20 20" fill="none" xmlns="http://www.w3.org/2000/svg">
<path d="M9.375 2.5C9.04785 2.5 8.71338 2.61475 8.47656 2.85156C8.23975 3.08838 8.125 3.42285 8.125 3.75V4.375H4.375V5.625H5V15.625C5 16.6528 5.84717 17.5 6.875 17.5H14.375C15.4028 17.5 16.25 16.6528 16.25 15.625V5.625H16.875V4.375H13.125V3.75C13.125 3.42285 13.0103 3.08838 12.7734 2.85156C12.5366 2.61475 12.2021 2.5 11.875 2.5H9.375ZM9.375 3.75H11.875V4.375H9.375V3.75ZM6.25 5.625H15V15.625C15 15.9717 14.7217 16.25 14.375 16.25H6.875C6.52832 16.25 6.25 15.9717 6.25 15.625V5.625ZM7.5 7.5V14.375H8.75V7.5H7.5ZM10 7.5V14.375H11.25V7.5H10ZM12.5 7.5V14.375H13.75V7.5H12.5Z" fill="#6C6C6C"/>
</svg>
