<svg width="208" height="40" viewBox="0 0 208 40" fill="none" xmlns="http://www.w3.org/2000/svg">
<path d="M20.0055 23.3811C21.89 23.3811 23.4177 21.8534 23.4177 19.9689C23.4177 18.0844 21.89 16.5567 20.0055 16.5567C18.121 16.5567 16.5933 18.0844 16.5933 19.9689C16.5933 21.8534 18.121 23.3811 20.0055 23.3811Z" fill="#F06313"/>
<path d="M21.4716 3.48424C29.4464 4.18661 35.8168 10.5584 36.5201 18.5345H40.0099C39.2942 8.62588 31.3797 0.717027 21.4716 0V3.48424Z" fill="#F06313"/>
<path d="M18.5391 3.48448V0.000671387C8.63093 0.717698 0.715611 8.62612 -0.00012207 18.5347H3.49059C4.19295 10.5586 10.5634 4.18728 18.5391 3.48448Z" fill="#F06313"/>
<path d="M18.5392 36.5162C10.5635 35.8138 4.19308 29.4421 3.49071 21.4668H0C0.715733 31.375 8.63105 39.2834 18.5392 40V36.5162Z" fill="#F06313"/>
<path d="M36.5206 21.4668C35.8173 29.4421 29.4469 35.8143 21.472 36.5162V40C31.3802 39.2838 39.2947 31.375 40.0104 21.4668H36.5206Z" fill="#F06313"/>
<path d="M20.0048 8.45386C13.6382 8.45429 8.45947 13.6347 8.45947 20.0009C8.45947 23.37 9.91034 26.4067 12.2205 28.5198L12.0925 20.6248L12.2826 19.1929H12.2869C12.6918 15.2921 15.9988 12.2399 20.0048 12.2399C24.2845 12.2399 27.7657 15.7216 27.7657 20.0009C27.7657 24.2798 24.2845 27.761 20.0048 27.761C18.2482 27.761 16.6253 27.1729 15.3236 26.1846V30.5519C16.7551 31.1896 18.3392 31.547 20.0048 31.547C26.3722 31.547 31.5518 26.3675 31.5518 20.0013C31.5518 13.6334 26.3722 8.45386 20.0048 8.45386Z" fill="#030395"/>
<path d="M50.0109 12.6614H53.032C54.6662 12.6614 55.8442 12.8124 56.5665 13.1139C57.2888 13.4155 57.858 13.904 58.2752 14.5789C58.6923 15.2538 58.9007 16.0626 58.9007 17.0047C58.9007 18.0489 58.6278 18.917 58.082 19.6086C57.5362 20.3002 56.7951 20.7819 55.8593 21.0527C55.3099 21.209 54.3094 21.2866 52.8585 21.2866V27.6235H50.0104L50.0109 12.6614ZM52.8591 18.5098H53.7642C54.4761 18.5098 54.9708 18.4587 55.2494 18.3567C55.5275 18.2546 55.7463 18.0864 55.9056 17.8515C56.065 17.6166 56.1447 17.3328 56.1447 16.999C56.1447 16.4209 55.9207 15.9991 55.4734 15.7335C55.1479 15.5361 54.5443 15.4377 53.6626 15.4377H52.8591V18.5098Z" fill="#F06313"/>
<path d="M60.7317 16.5569H63.1117V17.9505C63.3695 17.4011 63.7116 16.9845 64.1392 16.6996C64.5667 16.4147 65.0344 16.2726 65.5427 16.2726C65.902 16.2726 66.2785 16.3679 66.6717 16.5574L65.8072 18.9478C65.4817 18.7848 65.2135 18.7036 65.0037 18.7036C64.5766 18.7036 64.2152 18.9681 63.9204 19.4967C63.6257 20.0253 63.4778 21.0632 63.4778 22.6094L63.4882 23.1484V27.624H60.7317V16.5569Z" fill="#F06313"/>
<path d="M79.132 22.8938H70.2116C70.3402 23.6807 70.6844 24.3061 71.2437 24.7707C71.8031 25.2352 72.5165 25.4675 73.3847 25.4675C74.4221 25.4675 75.3137 25.105 76.0599 24.379L78.3993 25.4774C77.816 26.3049 77.1176 26.9168 76.3042 27.3131C75.4907 27.7095 74.5242 27.9084 73.4055 27.9084C71.6697 27.9084 70.2558 27.3605 69.1637 26.2658C68.0717 25.1706 67.5259 23.7994 67.5259 22.1517C67.5259 20.4633 68.0701 19.0608 69.1585 17.9458C70.247 16.8308 71.6114 16.2726 73.2524 16.2726C74.9949 16.2726 76.412 16.8303 77.5041 17.9458C78.5956 19.0613 79.1419 20.5346 79.1419 22.3652L79.132 22.8938ZM76.3552 20.707C76.1719 20.0899 75.81 19.5884 75.2699 19.2014C74.7299 18.815 74.1034 18.6218 73.3904 18.6218C72.616 18.6218 71.9369 18.839 71.3526 19.2728C70.9854 19.5441 70.6464 20.0217 70.3334 20.707H76.3552Z" fill="#F06313"/>
<path d="M92.2125 18.7947L89.9007 20.0659C89.4664 19.6118 89.0368 19.2962 88.6123 19.1202C88.1879 18.9442 87.6906 18.8556 87.1203 18.8556C86.0813 18.8556 85.2413 19.1655 84.5997 19.7847C83.9581 20.4039 83.6373 21.1981 83.6373 22.1662C83.6373 23.1073 83.9461 23.876 84.5638 24.4718C85.1814 25.0675 85.9928 25.3654 86.9979 25.3654C88.2405 25.3654 89.2076 24.942 89.9002 24.0942L92.0901 25.5935C90.9033 27.1371 89.2284 27.9084 87.0656 27.9084C85.1194 27.9084 83.5951 27.3324 82.4937 26.1794C81.3917 25.0264 80.8407 23.677 80.8407 22.1314C80.8407 21.0596 81.1084 20.0732 81.6443 19.1712C82.1796 18.2698 82.9275 17.5604 83.8873 17.0454C84.8466 16.5303 85.9199 16.2726 87.1068 16.2726C88.2051 16.2726 89.192 16.4913 90.0669 16.9287C90.9418 17.3662 91.6563 17.9875 92.2125 18.7947Z" fill="#F06313"/>
<path d="M95.7981 12C96.2851 12 96.7022 12.1765 97.0506 12.5291C97.3985 12.8817 97.573 13.3087 97.573 13.8108C97.573 14.3055 97.4006 14.7279 97.0558 15.0773C96.7105 15.4268 96.2986 15.6012 95.8184 15.6012C95.3247 15.6012 94.904 15.4231 94.5555 15.0674C94.2071 14.7112 94.0332 14.2789 94.0332 13.7707C94.0332 13.2822 94.2056 12.8655 94.5503 12.5197C94.8951 12.1739 95.3112 12 95.7981 12ZM94.4097 16.5569H97.1865V27.6235H94.4097V16.5569Z" fill="#F06313"/>
<path d="M106.483 18.103L104.764 19.8221C104.066 19.1305 103.432 18.7848 102.862 18.7848C102.551 18.7848 102.306 18.8509 102.13 18.9832C101.954 19.1154 101.866 19.2795 101.866 19.4763C101.866 19.6253 101.921 19.7628 102.033 19.8883C102.145 20.0138 102.421 20.1846 102.862 20.4018L103.88 20.9106C104.951 21.4397 105.687 21.9787 106.087 22.5276C106.487 23.077 106.687 23.7212 106.687 24.4602C106.687 25.4435 106.326 26.2642 105.603 26.922C104.881 27.5797 103.913 27.9089 102.699 27.9089C101.086 27.9089 99.7972 27.2782 98.8342 26.0169L100.543 24.1556C100.868 24.5352 101.25 24.842 101.687 25.0763C102.125 25.3107 102.513 25.4273 102.852 25.4273C103.218 25.4273 103.513 25.3393 103.736 25.1628C103.96 24.9862 104.072 24.7831 104.072 24.5524C104.072 24.1254 103.669 23.7082 102.862 23.3015L101.927 22.8328C100.136 21.9313 99.2415 20.8023 99.2415 19.4456C99.2415 18.5707 99.5784 17.8234 100.253 17.2026C100.928 16.5824 101.791 16.272 102.842 16.272C103.561 16.272 104.237 16.4298 104.871 16.7448C105.505 17.0604 106.042 17.513 106.483 18.103Z" fill="#F06313"/>
<path d="M109.957 12C110.444 12 110.861 12.1765 111.21 12.5291C111.557 12.8817 111.732 13.3087 111.732 13.8108C111.732 14.3055 111.56 14.7279 111.215 15.0773C110.869 15.4268 110.458 15.6012 109.977 15.6012C109.484 15.6012 109.063 15.4231 108.714 15.0674C108.366 14.7112 108.192 14.2789 108.192 13.7707C108.192 13.2822 108.365 12.8655 108.709 12.5197C109.054 12.1739 109.47 12 109.957 12ZM108.569 16.5569H111.345V27.6235H108.569V16.5569Z" fill="#F06313"/>
<path d="M119.066 16.272C120.11 16.272 121.092 16.5329 122.01 17.0552C122.929 17.5776 123.646 18.2858 124.162 19.1811C124.677 20.0763 124.934 21.0423 124.934 22.0797C124.934 23.1239 124.675 24.1004 124.156 25.0091C123.638 25.9179 122.93 26.6277 122.036 27.1402C121.141 27.6526 120.154 27.9083 119.076 27.9083C117.489 27.9083 116.134 27.3438 115.012 26.2148C113.89 25.0857 113.329 23.714 113.329 22.1006C113.329 20.3716 113.963 18.9306 115.231 17.7776C116.343 16.774 117.621 16.272 119.066 16.272ZM119.112 18.8863C118.249 18.8863 117.53 19.1863 116.957 19.7867C116.382 20.3867 116.096 21.1548 116.096 22.0907C116.096 23.0536 116.379 23.8337 116.947 24.43C117.514 25.0269 118.232 25.3253 119.102 25.3253C119.971 25.3253 120.695 25.0237 121.272 24.4201C121.849 23.8166 122.138 23.0406 122.138 22.0907C122.138 21.1408 121.854 20.37 121.287 19.7768C120.72 19.1837 119.994 18.8863 119.112 18.8863Z" fill="#F06313"/>
<path d="M127.203 16.5568H129.98V17.6911C130.609 17.1599 131.18 16.7907 131.691 16.5834C132.202 16.3761 132.725 16.272 133.26 16.272C134.357 16.272 135.288 16.6547 136.054 17.4213C136.697 18.0723 137.019 19.0353 137.019 20.3101V27.6235H134.273V22.7771C134.273 21.4564 134.213 20.5794 134.095 20.1456C133.977 19.7123 133.77 19.3821 133.476 19.155C133.182 18.928 132.818 18.815 132.386 18.815C131.824 18.815 131.342 19.003 130.939 19.379C130.537 19.755 130.258 20.2747 130.103 20.9382C130.021 21.284 129.981 22.0323 129.981 23.1838V27.6235H127.204V16.5568H127.203Z" fill="#F06313"/>
<path d="M147.861 14.6956L145.752 16.5568C145.012 15.5262 144.257 15.0106 143.49 15.0106C143.116 15.0106 142.811 15.1106 142.573 15.3106C142.335 15.5106 142.216 15.7361 142.216 15.9871C142.216 16.2381 142.301 16.4756 142.471 16.699C142.701 16.9974 143.398 17.6385 144.559 18.6212C145.646 19.53 146.305 20.1028 146.536 20.3403C147.113 20.9236 147.523 21.4808 147.764 22.0136C148.005 22.5458 148.125 23.1275 148.125 23.7582C148.125 24.9852 147.701 25.9997 146.852 26.7996C146.004 27.5995 144.897 28 143.533 28C142.467 28 141.539 27.7391 140.748 27.2167C139.957 26.6944 139.28 25.8741 138.716 24.755L141.11 23.3109C141.831 24.6331 142.659 25.2945 143.596 25.2945C144.085 25.2945 144.496 25.1523 144.829 24.8675C145.162 24.5826 145.328 24.2535 145.328 23.8806C145.328 23.5416 145.202 23.2025 144.951 22.8635C144.699 22.5245 144.145 22.0058 143.29 21.3074C141.66 19.9784 140.607 18.9529 140.131 18.2306C139.656 17.5083 139.418 16.7875 139.418 16.0694C139.418 15.032 139.814 14.142 140.605 13.3993C141.396 12.6567 142.372 12.2854 143.533 12.2854C144.279 12.2854 144.991 12.4583 145.666 12.8041C146.342 13.1493 147.073 13.78 147.861 14.6956Z" fill="#030395"/>
<path d="M161.623 22.8938H152.703C152.832 23.6807 153.176 24.3061 153.735 24.7707C154.294 25.2352 155.008 25.4675 155.876 25.4675C156.913 25.4675 157.805 25.105 158.551 24.379L160.891 25.4774C160.307 26.3049 159.609 26.9168 158.796 27.3131C157.982 27.7095 157.015 27.9084 155.897 27.9084C154.161 27.9084 152.747 27.3605 151.655 26.2658C150.563 25.1706 150.017 23.7994 150.017 22.1517C150.017 20.4633 150.561 19.0608 151.65 17.9458C152.738 16.8308 154.103 16.2726 155.744 16.2726C157.487 16.2726 158.903 16.8303 159.995 17.9458C161.087 19.0613 161.633 20.5346 161.633 22.3652L161.623 22.8938ZM158.847 20.707C158.663 20.0899 158.301 19.5884 157.761 19.2014C157.221 18.8145 156.595 18.6218 155.882 18.6218C155.107 18.6218 154.428 18.839 153.844 19.2728C153.477 19.5441 153.138 20.0217 152.825 20.707H158.847Z" fill="#030395"/>
<path d="M172.039 16.5569H174.816V27.6235H172.039V26.4539C171.497 26.9689 170.954 27.3402 170.409 27.5678C169.863 27.7954 169.272 27.9084 168.636 27.9084C167.207 27.9084 165.97 27.3543 164.927 26.2455C163.884 25.1368 163.363 23.7588 163.363 22.111C163.363 20.4024 163.868 19.002 164.877 17.9104C165.886 16.8183 167.112 16.2726 168.555 16.2726C169.218 16.2726 169.841 16.3981 170.424 16.6491C171.006 16.8996 171.544 17.2761 172.04 17.7781V16.5569H172.039ZM169.12 18.8353C168.262 18.8353 167.548 19.1389 166.981 19.7457C166.413 20.3524 166.129 21.1304 166.129 22.0798C166.129 23.036 166.418 23.8229 166.996 24.4395C167.573 25.0561 168.285 25.3649 169.13 25.3649C170.002 25.3649 170.725 25.0613 171.3 24.4546C171.874 23.8479 172.161 23.0526 172.161 22.0694C172.161 21.1065 171.874 20.3263 171.3 19.73C170.725 19.1337 169.999 18.8353 169.12 18.8353Z" fill="#030395"/>
<path d="M176.972 16.5569H179.352V17.9505C179.61 17.4011 179.952 16.9845 180.379 16.6996C180.807 16.4147 181.275 16.2726 181.783 16.2726C182.142 16.2726 182.519 16.3679 182.912 16.5574L182.047 18.9478C181.722 18.7848 181.454 18.7036 181.244 18.7036C180.817 18.7036 180.455 18.9681 180.161 19.4967C179.866 20.0253 179.718 21.0632 179.718 22.6094L179.728 23.1484V27.624H176.972V16.5569Z" fill="#030395"/>
<path d="M195.118 18.7947L192.807 20.0659C192.372 19.6118 191.943 19.2962 191.519 19.1202C191.094 18.9436 190.596 18.8556 190.026 18.8556C188.988 18.8556 188.147 19.1655 187.506 19.7847C186.864 20.4039 186.543 21.1981 186.543 22.1662C186.543 23.1073 186.852 23.876 187.47 24.4718C188.088 25.0675 188.899 25.3654 189.904 25.3654C191.147 25.3654 192.114 24.942 192.806 24.0942L194.996 25.5935C193.809 27.1371 192.134 27.9084 189.971 27.9084C188.025 27.9084 186.501 27.3324 185.399 26.1794C184.297 25.0264 183.746 23.677 183.746 22.1314C183.746 21.0596 184.015 20.0732 184.55 19.1712C185.085 18.2692 185.833 17.5604 186.793 17.0454C187.753 16.5303 188.826 16.2726 190.012 16.2726C191.111 16.2726 192.098 16.4913 192.973 16.9287C193.847 17.3662 194.562 17.9875 195.118 18.7947Z" fill="#030395"/>
<path d="M197.63 12.2849H200.387V17.6761C200.93 17.2084 201.475 16.8574 202.025 16.6235C202.574 16.3897 203.13 16.2725 203.693 16.2725C204.791 16.2725 205.717 16.6522 206.47 17.412C207.114 18.0698 207.436 19.0358 207.436 20.3107V27.624H204.699V22.7724C204.699 21.4908 204.639 20.6226 204.516 20.1685C204.394 19.7144 204.185 19.3754 203.891 19.1514C203.596 18.9275 203.231 18.8155 202.797 18.8155C202.234 18.8155 201.751 19.002 201.348 19.3748C200.945 19.7477 200.664 20.256 200.509 20.9007C200.427 21.233 200.387 21.9928 200.387 23.1792V27.624H197.63V12.2849Z" fill="#030395"/>
</svg>
