<svg width="27" height="32" viewBox="0 0 27 32" fill="none" xmlns="http://www.w3.org/2000/svg">
<path d="M3.30486 -0.000120883C1.48302 -0.000120883 0 1.48397 0 3.30574V28.6938C0 30.5156 1.48302 31.9996 3.30486 31.9996H22.7183C24.5401 31.9996 26.0232 30.5156 26.0232 28.6938V7.81774C26.0232 7.81774 26.0752 7.20645 25.8098 6.6116C25.561 6.05402 25.1556 5.66593 25.1556 5.66593C25.1546 5.66455 25.1536 5.66319 25.1526 5.66183L20.3361 0.937441C20.3334 0.934746 20.3307 0.932078 20.328 0.929438C20.328 0.929438 19.9168 0.537864 19.3072 0.27628C18.5895 -0.0317228 17.8496 0.000790891 17.8496 0.000790891L17.8607 -0.000234365L3.30486 -0.000120883Z" fill="#FF2116"/>
<path d="M3.30487 1.08581H17.8607C17.8644 1.08585 17.868 1.08585 17.8717 1.08581C17.8717 1.08581 18.4538 1.09145 18.8795 1.27414C19.2893 1.44998 19.5798 1.71615 19.5818 1.71793C19.5818 1.71794 19.5838 1.71998 19.5838 1.71998L24.3883 6.43334C24.3883 6.43334 24.6777 6.73895 24.818 7.05345C24.9313 7.3073 24.9383 7.77173 24.9383 7.77173C24.9378 7.77939 24.9374 7.78707 24.9372 7.79475V28.6938C24.9372 29.933 23.9574 30.9138 22.7183 30.9138H3.30487C2.06573 30.9138 1.08594 29.933 1.08594 28.6938V3.30579C1.08594 2.06658 2.06573 1.08581 3.30487 1.08581Z" fill="#F5F5F5"/>
<path d="M6.49788 19.0523C5.75073 18.3051 6.55909 17.2785 8.75288 16.1882L10.1332 15.5022L10.671 14.3256C10.9668 13.6785 11.4082 12.6226 11.652 11.9792L12.0952 10.8093L11.7897 9.94356C11.4142 8.87903 11.2803 7.27931 11.5186 6.70408C11.8413 5.92493 12.8984 6.00487 13.317 6.84008C13.6438 7.49238 13.6104 8.67367 13.2229 10.1635L12.9053 11.3848L13.1851 11.8598C13.339 12.121 13.7885 12.7413 14.184 13.2382L14.9273 14.1628L15.8523 14.0421C18.7907 13.6587 19.7972 14.3104 19.7972 15.2448C19.7972 16.4241 17.4899 16.5214 15.5523 15.1606C15.1164 14.8544 14.817 14.5502 14.817 14.5502C14.817 14.5502 13.6032 14.7973 13.0055 14.9584C12.3886 15.1246 12.0809 15.2288 11.1773 15.5338C11.1773 15.5338 10.8602 15.9942 10.6536 16.3289C9.88497 17.5742 8.98751 18.6062 8.34658 18.9819C7.62896 19.4024 6.87666 19.4311 6.49788 19.0523ZM7.67042 18.6334C8.0904 18.3738 8.94046 17.3685 9.5289 16.4353L9.76714 16.0575L8.68235 16.603C7.00691 17.4453 6.24042 18.2393 6.63899 18.7195C6.86289 18.9893 7.13074 18.967 7.67042 18.6334ZM18.5534 15.5786C18.9642 15.2909 18.9045 14.7111 18.4401 14.4773C18.0787 14.2954 17.7874 14.258 16.8485 14.2719C16.2715 14.3112 15.3437 14.4275 15.1865 14.4628C15.1865 14.4628 15.6962 14.8151 15.9225 14.9446C16.2237 15.1166 16.9557 15.436 17.4902 15.5996C18.0174 15.761 18.3223 15.744 18.5534 15.5786ZM14.1775 13.7599C13.9289 13.4986 13.5061 12.9531 13.2381 12.5478C12.8875 12.088 12.7117 11.7636 12.7117 11.7636C12.7117 11.7636 12.4554 12.5878 12.2452 13.0838L11.5893 14.705L11.3992 15.0727C11.3992 15.0727 12.4101 14.7412 12.9245 14.6069C13.4693 14.4646 14.575 14.2472 14.575 14.2472L14.1775 13.7599ZM12.7673 8.10468C12.8307 7.57253 12.8576 7.04118 12.6866 6.77323C12.2124 6.25479 11.64 6.68713 11.737 7.91967C11.7696 8.33431 11.8726 9.04312 12.0103 9.47999L12.2607 10.2743L12.4369 9.67605C12.5339 9.34701 12.6825 8.63989 12.7673 8.10468Z" fill="#FF2116"/>
<path d="M7.76831 22.5122H8.98134C9.36893 22.5122 9.68355 22.5493 9.9252 22.6234C10.1668 22.6952 10.3702 22.8567 10.5353 23.1079C10.7004 23.3568 10.7829 23.657 10.7829 24.0087C10.7829 24.3317 10.7159 24.6093 10.582 24.8413C10.448 25.0734 10.2673 25.2409 10.04 25.3438C9.81514 25.4467 9.46822 25.4981 8.99928 25.4981H8.57939V27.411H7.76831V22.5122ZM8.57939 23.1402V24.8485H8.98134C9.34022 24.8485 9.58785 24.7815 9.72422 24.6475C9.86299 24.5136 9.93238 24.2958 9.93238 23.9944C9.93238 23.7695 9.88692 23.5876 9.796 23.4489C9.70508 23.3077 9.6046 23.2216 9.49454 23.1905C9.38687 23.157 9.21581 23.1402 8.98134 23.1402L8.57939 23.1402ZM11.4038 22.5122H12.5056C13.0391 22.5122 13.465 22.6067 13.7832 22.7957C14.1038 22.9847 14.3454 23.2658 14.5081 23.6391C14.6732 24.0123 14.7558 24.4262 14.7558 24.8808C14.7558 25.3593 14.6816 25.7864 14.5333 26.162C14.3873 26.5353 14.1624 26.8367 13.8586 27.0664C13.5571 27.2961 13.1264 27.411 12.5666 27.411H11.4038V22.5122ZM12.2149 23.1618V26.7614H12.5522C13.0236 26.7614 13.3657 26.5987 13.5786 26.2733C13.7916 25.9455 13.898 25.5089 13.898 24.9634C13.898 23.7623 13.4494 23.1618 12.5522 23.1618H12.2149ZM15.5345 22.5122H18.2549V23.1618H16.3456V24.626H17.8745V25.2756H16.3456V27.411H15.5345V22.5122Z" fill="#2C2C2C"/>
</svg>
