<svg width="28" height="28" viewBox="0 0 28 28" fill="none" xmlns="http://www.w3.org/2000/svg">
<path d="M12.5373 5.25C8.52125 5.25 5.25 8.52125 5.25 12.5373C5.25 16.5533 8.52125 19.8245 12.5373 19.8245C14.2837 19.8245 15.8875 19.2044 17.1445 18.1749L21.4955 22.5259C21.5626 22.5959 21.6431 22.6517 21.7321 22.6902C21.8211 22.7287 21.9168 22.749 22.0138 22.75C22.1107 22.7509 22.2069 22.7326 22.2967 22.6959C22.3864 22.6593 22.468 22.6051 22.5365 22.5365C22.6051 22.468 22.6593 22.3864 22.6959 22.2967C22.7326 22.2069 22.7509 22.1107 22.75 22.0138C22.749 21.9168 22.7287 21.8211 22.6902 21.7321C22.6517 21.6431 22.5959 21.5626 22.5259 21.4955L18.1749 17.1445C19.2044 15.8875 19.8245 14.2837 19.8245 12.5373C19.8245 8.52125 16.5533 5.25 12.5373 5.25ZM12.5373 6.70745C15.7656 6.70745 18.3671 9.30892 18.3671 12.5373C18.3671 15.7656 15.7656 18.3671 12.5373 18.3671C9.30892 18.3671 6.70745 15.7656 6.70745 12.5373C6.70745 9.30892 9.30892 6.70745 12.5373 6.70745Z" fill="#6C6C6C"/>
</svg>
