<svg width="28" height="28" viewBox="0 0 28 28" fill="none" xmlns="http://www.w3.org/2000/svg">
<path d="M20.9756 24.6094H8.50302C7.7789 24.6085 7.08469 24.3195 6.57266 23.8058C6.06063 23.292 5.77259 22.5955 5.77173 21.869V5.36539C5.77259 4.63886 6.06063 3.94234 6.57266 3.4286C7.08469 2.91487 7.7789 2.62587 8.50302 2.625H16.6844C16.7917 2.62495 16.8981 2.64613 16.9973 2.68732C17.0965 2.72851 17.1867 2.78892 17.2627 2.86508L23.4676 9.09289C23.5435 9.1691 23.6037 9.25957 23.6448 9.35913C23.6858 9.45868 23.707 9.56538 23.7069 9.67312V21.8684C23.7062 22.5951 23.4182 23.2917 22.9062 23.8056C22.3941 24.3194 21.6998 24.6085 20.9756 24.6094ZM8.50302 4.26563C8.2124 4.26591 7.93377 4.38188 7.72827 4.58806C7.52277 4.79424 7.4072 5.0738 7.40691 5.36539V21.869C7.4072 22.1606 7.52277 22.4401 7.72827 22.6463C7.93377 22.8525 8.2124 22.9685 8.50302 22.9688H20.9756C21.2662 22.9685 21.5449 22.8525 21.7504 22.6463C21.9559 22.4401 22.0714 22.1606 22.0717 21.869V10.0127L16.3437 4.26563H8.50302Z" fill="#F06313"/>
<path d="M22.8892 10.4934H18.5958C17.8717 10.4926 17.1775 10.2036 16.6654 9.68984C16.1534 9.1761 15.8654 8.47958 15.8645 7.75305V3.44531C15.8645 3.22775 15.9506 3.0191 16.104 2.86526C16.2573 2.71143 16.4653 2.625 16.6821 2.625C16.8989 2.625 17.1069 2.71143 17.2602 2.86526C17.4135 3.0191 17.4997 3.22775 17.4997 3.44531V7.75305C17.5 8.04463 17.6155 8.3242 17.821 8.53038C18.0265 8.73656 18.3052 8.85252 18.5958 8.85281H22.8892C23.1061 8.85281 23.314 8.93924 23.4674 9.09308C23.6207 9.24691 23.7068 9.45556 23.7068 9.67313C23.7068 9.89069 23.6207 10.0993 23.4674 10.2532C23.314 10.407 23.1061 10.4934 22.8892 10.4934Z" fill="#F06313"/>
<path d="M17.7057 16.4309C17.5983 16.431 17.492 16.4098 17.3928 16.3685C17.2937 16.3272 17.2036 16.2666 17.1279 16.1902L14.7384 13.7927L12.3483 16.1902C12.2729 16.2686 12.1827 16.3311 12.0829 16.3741C11.9832 16.4171 11.8759 16.4397 11.7673 16.4406C11.6588 16.4416 11.5511 16.4208 11.4506 16.3796C11.3501 16.3383 11.2589 16.2774 11.1821 16.2004C11.1053 16.1234 11.0446 16.0318 11.0035 15.931C10.9624 15.8302 10.9417 15.7222 10.9427 15.6132C10.9436 15.5043 10.9662 15.3967 11.009 15.2966C11.0519 15.1965 11.1141 15.106 11.1922 15.0303L14.1601 12.0526C14.3134 11.8988 14.5213 11.8124 14.7381 11.8124C14.9549 11.8124 15.1628 11.8988 15.3161 12.0526L18.284 15.0303C18.3984 15.145 18.4763 15.2912 18.5079 15.4504C18.5395 15.6096 18.5233 15.7746 18.4614 15.9245C18.3995 16.0745 18.2946 16.2026 18.1601 16.2927C18.0256 16.3829 17.8674 16.4309 17.7057 16.4309Z" fill="#030395"/>
<path d="M14.7385 20.5078C14.5216 20.5078 14.3137 20.4214 14.1604 20.2675C14.007 20.1137 13.9209 19.9051 13.9209 19.6875V13.1797C13.9209 12.9621 14.007 12.7535 14.1604 12.5996C14.3137 12.4458 14.5216 12.3594 14.7385 12.3594C14.9553 12.3594 15.1633 12.4458 15.3166 12.5996C15.4699 12.7535 15.5561 12.9621 15.5561 13.1797V19.6875C15.5561 19.9051 15.4699 20.1137 15.3166 20.2675C15.1633 20.4214 14.9553 20.5078 14.7385 20.5078Z" fill="#030395"/>
</svg>
