<svg width="32" height="32" viewBox="0 0 32 32" fill="none" xmlns="http://www.w3.org/2000/svg">
<mask id="mask0_34_936" style="mask-type:alpha" maskUnits="userSpaceOnUse" x="2" y="2" width="28" height="28">
<ellipse cx="16.0001" cy="16" rx="13.3333" ry="13.3333" fill="white"/>
</mask>
<g mask="url(#mask0_34_936)">
<path d="M28.8334 16C28.8334 23.0876 23.0877 28.8333 16.0001 28.8333C8.91243 28.8333 3.16675 23.0876 3.16675 16C3.16675 8.91234 8.91243 3.16666 16.0001 3.16666C23.0877 3.16666 28.8334 8.91234 28.8334 16Z" stroke="#7B7B7B"/>
<path d="M20.4838 11.8153L20.4838 11.8154C20.2782 14.4304 18.2995 16.5093 15.455 16.5C13.2305 16.4928 11.6232 15.1025 10.9167 13.5146L10.9166 13.5146C9.99011 11.4328 10.7295 9.11307 11.9671 7.91217L11.9675 7.91181C12.6857 7.21337 13.6497 6.71191 15.0449 6.5H15.046H15.0479H15.0498H15.0517H15.0536H15.0556H15.0575H15.0594H15.0613H15.0632H15.0651H15.0671H15.069H15.0709H15.0728H15.0747H15.0766H15.0786H15.0805H15.0824H15.0843H15.0862H15.0881H15.0901H15.092H15.0939H15.0958H15.0977H15.0996H15.1016H15.1035H15.1054H15.1073H15.1092H15.1111H15.113H15.115H15.1169H15.1188H15.1207H15.1226H15.1245H15.1265H15.1284H15.1303H15.1322H15.1341H15.136H15.138H15.1399H15.1418H15.1437H15.1456H15.1475H15.1495H15.1514H15.1533H15.1552H15.1571H15.159H15.1609H15.1629H15.1648H15.1667H15.1686H15.1705H15.1724H15.1744H15.1763H15.1782H15.1801H15.182H15.1839H15.1859H15.1878H15.1897H15.1916H15.1935H15.1954H15.1974H15.1993H15.2012H15.2031H15.205H15.2069H15.2088H15.2108H15.2127H15.2146H15.2165H15.2184H15.2203H15.2223H15.2242H15.2261H15.228H15.2299H15.2318H15.2338H15.2357H15.2376H15.2395H15.2414H15.2433H15.2453H15.2472H15.2491H15.251H15.2529H15.2548H15.2568H15.2587H15.2606H15.2625H15.2644H15.2663H15.2682H15.2702H15.2721H15.274H15.2759H15.2778H15.2797H15.2817H15.2836H15.2855H15.2874H15.2893H15.2912H15.2932H15.2951H15.297H15.2989H15.3008H15.3027H15.3047H15.3066H15.3085H15.3104H15.3123H15.3142H15.3161H15.3181H15.32H15.3219H15.3238H15.3257H15.3276H15.3296H15.3315H15.3334H15.3353H15.3372H15.3391H15.3411H15.343H15.3449H15.3468H15.3487H15.3506H15.3526H15.3545H15.3564H15.3583H15.3602H15.3621H15.364H15.366H15.3679H15.3698H15.3717H15.3736H15.3755H15.3775H15.3794H15.3813H15.3832H15.3851H15.387H15.389H15.3909H15.3928H15.3947H15.3966H15.3985H15.4005H15.4024H15.4043H15.4062H15.4081H15.41H15.412H15.4139H15.4158H15.4177H15.4196H15.4215H15.4234H15.4254H15.4273H15.4292H15.4311H15.433H15.4349H15.4369H15.4388H15.4407H15.4426H15.4445H15.4464H15.4484H15.4503H15.4522H15.4541H15.456H15.4579H15.4599H15.4618H15.4637H15.4656H15.4675H15.4694H15.4713H15.4733H15.4752H15.4771H15.479H15.4809H15.4828H15.4848H15.4867H15.4886H15.4905H15.4924H15.4943H15.4963H15.4982H15.5001H15.502H15.5039H15.5058H15.5078H15.5097H15.5116H15.5135H15.5154H15.5173H15.5192H15.5212H15.5231H15.525H15.5269H15.5288H15.5307H15.5327H15.5346H15.5365H15.5384H15.5403H15.5422H15.5442H15.5461H15.548H15.5499H15.5518H15.5537H15.5557H15.5576H15.5595H15.5614H15.5633H15.5652H15.5672H15.5691H15.571H15.5729H15.5748H15.5767H15.5786H15.5806H15.5825H15.5844H15.5863H15.5882H15.5901H15.5921H15.594H15.5959H15.5978H15.5997H15.6016H15.6036H15.6055H15.6074H15.6093H15.6112H15.6131H15.6151H15.617H15.6189H15.6208H15.6227H15.6246H15.6265H15.6285H15.6304H15.6323H15.6342H15.6361H15.638H15.64H15.6419H15.6438H15.6457H15.6476H15.6495H15.6515H15.6534H15.6553H15.6572H15.6591H15.661H15.663H15.6649H15.6668H15.6687H15.6706H15.6725H15.6744H15.6764H15.6783H15.6802H15.6821H15.684H15.6859H15.6879H15.6898H15.6917H15.6936H15.6955H15.6974H15.6994H15.7013H15.7032H15.7051H15.707H15.7089H15.7109H15.7128H15.7147H15.7166H15.7185H15.7204H15.7223H15.7243H15.7262H15.7281H15.73H15.7319H15.7338H15.7358H15.7377H15.7396H15.7415H15.7434H15.7453H15.7473H15.7492H15.7511H15.753H15.7549H15.7568H15.7588H15.7607H15.7626H15.7645H15.7664H15.7683H15.7703H15.7722H15.7741H15.776H15.7779H15.7798H15.7817H15.7837H15.7856H15.7875H15.7894H15.7913H15.7932H15.7952H15.7971H15.799H15.8009H15.8028H15.8047H15.8067H15.8086H15.8105H15.8124H15.8143H15.8162H15.8182H15.8201H15.822H15.8239H15.8258H15.8277H15.8296H15.8316H15.8335H15.8354H15.8373H15.8392H15.8411H15.8431H15.845H15.8469H15.8488H15.8507H15.8526H15.8546H15.8565H15.8584H15.8603H15.8622H15.8641H15.8661H15.868H15.8699H15.8718H15.8737H15.8756H15.8775H15.8795H15.8814H15.8833H15.8852H15.8871H15.889H15.891H15.8929H15.8948H15.8967H15.8986H15.9005H15.9025H15.9044H15.9063H15.9082H15.9101H15.912H15.914H15.9159H15.9178H15.9197H15.9216H15.9235H15.9255H15.9274H15.9293H15.9312H15.9331H15.935H15.9369H15.9389H15.9408H15.9427H15.9446H15.9465H15.9484H15.9504H15.9523H15.9542H15.9561H15.958H15.9586C18.6669 6.83399 20.7026 9.03294 20.4838 11.8153Z" stroke="#6C6C6C"/>
<path d="M23.4238 20.149L23.4238 20.1489C23.1812 19.8318 22.9077 19.4885 22.6209 19.1961C22.3269 18.8964 22.0574 18.6907 21.8311 18.6027C21.3443 18.4145 20.8996 18.5025 20.4054 18.7276C20.177 18.8316 19.955 18.9569 19.7158 19.0919C19.6896 19.1067 19.6631 19.1217 19.6364 19.1367C19.377 19.2828 19.0918 19.4404 18.7999 19.5526C17.084 20.2123 14.8181 20.1547 13.1479 19.5045C12.8426 19.386 12.548 19.225 12.2829 19.0795L12.2666 19.0706C11.9977 18.9231 11.7552 18.79 11.5085 18.6879C11.0283 18.489 10.5851 18.428 10.0662 18.6812L23.4238 20.149ZM23.4238 20.149C23.9157 20.7917 24.259 21.4705 24.6289 22.3215C25.0458 23.2819 25.507 25.1114 25.4999 26.7156C25.4964 27.5193 25.3749 28.2116 25.1171 28.7024C24.8773 29.159 24.524 29.4412 23.9763 29.5M23.4238 20.149L23.9763 29.5M23.9763 29.5H23.9702H23.939H23.9077H23.8764H23.8452H23.8139H23.7826H23.7514H23.7201H23.6888H23.6575H23.6263H23.595H23.5637H23.5325H23.5012H23.4699H23.4387H23.4074H23.3761H23.3449H23.3136H23.2823H23.2511H23.2198H23.1885H23.1573H23.126H23.0947H23.0635H23.0322H23.0009H22.9696H22.9384H22.9071H22.8758H22.8446H22.8133H22.782H22.7508H22.7195H22.6882H22.657H22.6257H22.5944H22.5632H22.5319H22.5006H22.4694H22.4381H22.4068H22.3756H22.3443H22.313H22.2817H22.2505H22.2192H22.1879H22.1567H22.1254H22.0941H22.0629H22.0316H22.0003H21.9691H21.9378H21.9065H21.8753H21.844H21.8127H21.7815H21.7502H21.7189H21.6877H21.6564H21.6251H21.5938H21.5626H21.5313H21.5H21.4688H21.4375H21.4062H21.375H21.3437H21.3124H21.2812H21.2499H21.2186H21.1874H21.1561H21.1248H21.0936H21.0623H21.031H20.9998H20.9685H20.9372H20.9059H20.8747H20.8434H20.8121H20.7809H20.7496H20.7183H20.6871H20.6558H20.6245H20.5933H20.562H20.5307H20.4995H20.4682H20.4369H20.4057H20.3744H20.3431H20.3119H20.2806H20.2493H20.2181H20.1868H20.1555H20.1242H20.093H20.0617H20.0304H19.9992H19.9679H19.9366H19.9054H19.8741H19.8428H19.8116H19.7803H19.749H19.7178H19.6865H19.6552H19.624H19.5927H19.5614H19.5302H19.4989H19.4676H19.4364H19.4051H19.3738H19.3425H19.3113H19.28H19.2487H19.2175H19.1862H19.1549H19.1237H19.0924H19.0611H19.0299H18.9986H18.9673H18.9361H18.9048H18.8735H18.8423H18.811H18.7797H18.7485H18.7172H18.6859H18.6547H18.6234H18.5921H18.5609H18.5296H18.4983H18.467H18.4358H18.4045H18.3732H18.342H18.3107H18.2794H18.2482H18.2169H18.1856H18.1544H18.1231H18.0918H18.0606H18.0293H17.998H17.9668H17.9355H17.9042H17.873H17.8417H17.8104H17.7792H17.7479H17.7166H17.6854H17.6541H17.6228H17.5916H17.5603H17.529H17.4977H17.4665H17.4352H17.4039H17.3727H17.3414H17.3101H17.2789H17.2476H17.2163H17.1851H17.1538H17.1225H17.0913H17.06H17.0287H16.9975H16.9662H16.9349H16.9037H16.8724H16.8411H16.8099H16.7786H16.7473H16.7161H16.6848H16.6535H16.6223H16.591H16.5597H16.5285H16.4972H16.4659H16.4347H16.4034H16.3721H16.3408H16.3096H16.2783H16.247H16.2158H16.1845H16.1532H16.122H16.0907H16.0594H16.0282H15.9969H15.9656H15.9344H15.9031H15.8718H15.8406H15.8093H15.778H15.7468H15.7155H15.6842H15.653H15.6217H15.5904H15.5592H15.5279H15.4966H15.4654H15.4341H15.4028H15.3716H15.3403H15.309H15.2778H15.2465H15.2152H15.184H15.1527H15.1214H15.0902H15.0589H15.0276H14.9964H14.9651H14.9338H14.9026H14.8713H14.84H14.8088H14.7775H14.7462H14.715H14.6837H14.6524H14.6211H14.5899H14.5586H14.5273H14.4961H14.4648H14.4335H14.4023H14.371H14.3397H14.3085H14.2772H14.2459H14.2147H14.1834H14.1521H14.1209H14.0896H14.0583H14.0271H13.9958H13.9645H13.9333H13.902H13.8707H13.8395H13.8082H13.7769H13.7457H13.7144H13.6831H13.6519H13.6206H13.5893H13.5581H13.5268H13.4955H13.4643H13.433H13.4017H13.3705H13.3392H13.3079H13.2767H13.2454H13.2141H13.1829H13.1516H13.1203H13.0891H13.0578H13.0265H12.9953H12.964H12.9327H12.9015H12.8702H12.8389H12.8077H12.7764H12.7451H12.7139H12.6826H12.6513H12.6201H12.5888H12.5575H12.5263H12.495H12.4637H12.4325H12.4012H12.3699H12.3387H12.3074H12.2761H12.2449H12.2136H12.1823H12.1511H12.1198H12.0885H12.0573H12.026H11.9947H11.9635H11.9322H11.9009H11.8697H11.8384H11.8071H11.7759H11.7446H11.7133H11.6821H11.6508H11.6196H11.5883H11.557H11.5258H11.4945H11.4632H11.432H11.4007H11.3694H11.3382H11.3069H11.2756H11.2444H11.2131H11.1818H11.1506H11.1193H11.088H11.0568H11.0255H10.9942H10.963H10.9317H10.9004H10.8692H10.8379H10.8066H10.7754H10.7441H10.7128H10.6816H10.6503H10.619H10.5878H10.5565H10.5252H10.494H10.4627H10.4314H10.4002H10.3689H10.3376H10.3064H10.2751H10.2438H10.2126H10.1813H10.1501H10.1188H10.0875H10.0563H10.025H9.99372H9.96246H9.93119H9.89993H9.86866H9.8374H9.80613H9.77486H9.7436H9.71233H9.68107H9.6498H9.61854H9.58727H9.55601H9.52474H9.49348H9.46221H9.43094H9.39968H9.36841H9.33715H9.30588H9.27462H9.24335H9.21209H9.18082H9.14956H9.11829H9.08703H9.05576H9.0245H8.99323H8.96196H8.9307H8.89943H8.86817H8.8369H8.80564H8.77437H8.74311H8.71184H8.68058H8.64931H8.61805H8.58678H8.55552H8.52425H8.49299H8.46172H8.43046H8.39919H8.36793H8.33666H8.3054H8.27413H8.24287H8.2116H8.18034H8.14907H8.11781H8.08654H8.05528H8.03313C7.63516 29.4319 7.35421 29.2764 7.14715 29.0673C6.92881 28.8467 6.76445 28.5378 6.65559 28.1323C6.43377 27.3062 6.4697 26.1876 6.63438 24.9403C6.76905 23.9208 6.99547 23.0987 7.32332 22.3163L23.9763 29.5ZM8.52236 20.1659C8.02771 20.8538 7.60572 21.6432 7.3234 22.3161L8.52236 20.1659ZM8.52236 20.1659C9.02536 19.4663 9.56497 18.926 10.0661 18.6813L8.52236 20.1659Z" stroke="#6C6C6C"/>
</g>
</svg>
