<svg width="32" height="32" viewBox="0 0 32 32" fill="none" xmlns="http://www.w3.org/2000/svg">
<path fill-rule="evenodd" clip-rule="evenodd" d="M25.8333 2.81466C27.3526 3.09066 28.2786 3.95799 28.4959 5.53599C28.4959 12.5153 28.4959 19.4947 28.4959 26.4733C28.2786 28.0513 27.3526 28.9187 25.8333 29.1947C25.7553 29.1947 25.6759 29.1947 25.5973 29.1947C19.8006 29.1947 14.0046 29.1947 8.20793 29.1947C8.12859 29.1947 8.05059 29.1947 7.97126 29.1947C6.37593 28.916 5.47793 27.942 5.25126 26.296C5.25126 26.236 5.25126 26.176 5.25126 26.1187C4.91526 25.9807 4.32393 26.098 3.89059 26.0587C3.19793 26.082 3.19793 24.85 3.89059 24.8767C4.32393 24.8373 4.91526 24.9547 5.25126 24.8167C5.34859 24.1267 5.34859 23.0227 5.25126 22.332C4.91526 22.194 4.32393 22.3113 3.89059 22.272C3.19793 22.298 3.19793 21.066 3.89059 21.09C4.32393 21.0507 4.91526 21.168 5.25126 21.03C5.34859 20.34 5.34859 19.238 5.25126 18.5453C4.91526 18.41 4.32393 18.5273 3.89059 18.488C3.19793 18.5113 3.19793 17.2793 3.89059 17.3033C4.32393 17.264 4.91526 17.3813 5.25126 17.246C5.34859 16.556 5.34859 15.452 5.25126 14.7613C4.91526 14.6233 4.32393 14.7407 3.89059 14.7013C3.19793 14.7273 3.19793 13.4927 3.89059 13.5193C4.32393 13.48 4.91526 13.5973 5.25126 13.4593C5.34859 12.7693 5.34859 11.6653 5.25126 10.9747C4.91526 10.8393 4.32393 10.954 3.89059 10.9173C3.19793 10.9407 3.19793 9.70866 3.89059 9.73266C4.32393 9.69332 4.91526 9.81066 5.25126 9.67532C5.34859 8.98266 5.34859 7.88132 5.25126 7.19066C4.91526 7.05266 4.32393 7.16999 3.89059 7.13066C3.19793 7.15399 3.19793 5.92199 3.89059 5.94866C4.32393 5.90932 4.91526 6.02666 5.25126 5.88866C5.39193 4.09666 6.34126 3.11532 7.97126 2.81332C8.05059 2.81332 8.12859 2.81332 8.20793 2.81332C14.0046 2.81332 19.8006 2.81332 25.5973 2.81332C25.6759 2.81466 25.7553 2.81466 25.8333 2.81466ZM8.26659 3.99666C8.19726 4.00732 8.09859 3.98599 8.08926 4.05666C7.22193 4.17666 6.73393 4.67399 6.55126 5.47599C6.42059 5.50199 6.52859 5.76732 6.49326 5.88999C6.82926 6.02799 7.41926 5.91066 7.85259 5.94999C8.52059 6.00732 8.52059 7.07532 7.85259 7.13199C7.41926 7.17132 6.82926 7.05399 6.49326 7.19199C6.39459 7.88199 6.39459 8.98399 6.49326 9.67666C6.82926 9.81199 7.41926 9.69466 7.85259 9.73399C8.52059 9.79132 8.52059 10.8593 7.85259 10.9187C7.41926 10.9553 6.82926 10.8407 6.49326 10.976C6.39459 11.666 6.39459 12.77 6.49326 13.4607C6.82926 13.5987 7.41926 13.4813 7.85259 13.5207C8.52059 13.578 8.52059 14.646 7.85259 14.7027C7.41926 14.742 6.82926 14.6247 6.49326 14.7627C6.39459 15.4527 6.39459 16.5567 6.49326 17.2473C6.82926 17.3827 7.41926 17.2653 7.85259 17.3047C8.52059 17.3647 8.52059 18.432 7.85259 18.4893C7.41926 18.5287 6.82926 18.4113 6.49326 18.5467C6.39459 19.2393 6.39459 20.3407 6.49326 21.0313C6.82926 21.1693 7.41926 21.052 7.85259 21.0913C8.52059 21.1487 8.52059 22.2167 7.85259 22.2733C7.41926 22.3127 6.82926 22.1953 6.49326 22.3333C6.39459 23.0233 6.39459 24.1273 6.49326 24.818C6.82926 24.956 7.41926 24.8387 7.85259 24.878C8.52059 24.9353 8.52059 26.0033 7.85259 26.06C7.41926 26.0993 6.82926 25.982 6.49326 26.12C6.52859 26.2427 6.42059 26.508 6.55193 26.534C6.73393 27.336 7.22259 27.8333 8.08993 27.9533C8.10059 28.0213 8.18393 28.016 8.26726 28.0107C8.58526 28.1093 9.31126 28.1093 9.62793 28.0107C9.72659 20.146 9.72659 11.8647 9.62793 3.99732C9.31126 3.89799 8.58459 3.89799 8.26659 3.99666ZM10.9286 3.99666C10.8313 11.864 10.8313 20.1453 10.9286 28.01C15.6606 28.1087 20.8059 28.1087 25.5379 28.01C25.6079 28.002 25.7059 28.0207 25.7166 27.9527C26.5826 27.8327 27.0706 27.3353 27.2546 26.5333C27.2999 26.52 27.3226 26.484 27.3133 26.4133C27.4119 19.6113 27.4119 12.3953 27.3133 5.59332C27.2999 5.54932 27.3119 5.47866 27.2546 5.47599C27.0713 4.67399 26.5826 4.17666 25.7166 4.05666C25.7059 3.98666 25.6226 3.99132 25.5379 3.99666C20.8059 3.89799 15.6599 3.89799 10.9286 3.99666Z" fill="#6C6C6C"/>
<path fill-rule="evenodd" clip-rule="evenodd" d="M19.6241 12.3953C21.1394 13.3587 18.5721 15.0127 18.2048 13.4607C17.9768 12.502 18.9154 11.9473 19.6241 12.3953Z" fill="#6C6C6C"/>
<path fill-rule="evenodd" clip-rule="evenodd" d="M18.3814 15.9446C17.7487 15.934 17.7721 15.088 18.1447 14.822C18.2047 14.822 18.2634 14.822 18.3234 14.822C18.6387 14.822 18.9534 14.822 19.2687 14.822C19.5421 14.804 19.5881 15.0146 19.6827 15.176C19.6827 15.2153 19.6827 15.254 19.6827 15.2933C19.6827 16.3793 19.6827 17.4626 19.6827 18.546C19.7814 18.6446 20.0301 18.5926 20.2154 18.606C20.8194 18.648 20.8041 19.684 20.2154 19.7313C20.1961 19.7313 20.1761 19.7313 20.1567 19.7313C19.4667 19.7313 18.7767 19.7313 18.0867 19.7313C18.0474 19.7313 18.0074 19.7313 17.9681 19.7313C17.7114 19.6326 17.5421 19.4473 17.5541 19.08C17.6207 18.7906 17.7987 18.614 18.0867 18.546C18.2247 18.546 18.3627 18.546 18.5007 18.546C18.5007 18.528 18.5007 18.5066 18.5007 18.4886C18.6387 17.778 18.5201 16.8113 18.5594 16.004C18.5121 15.9733 18.4621 15.942 18.3814 15.9446Z" fill="#6C6C6C"/>
<path fill-rule="evenodd" clip-rule="evenodd" d="M18.7361 9.73398C18.9534 9.73398 19.1707 9.73398 19.3874 9.73398C21.0374 9.80198 22.1514 10.4006 23.1141 11.1533C23.3654 11.4553 23.6414 11.7313 23.9421 11.9813C24.6567 12.8826 25.2327 13.924 25.3614 15.4133C25.3614 15.4913 25.3614 15.5693 25.3614 15.65C25.3614 15.8846 25.3614 16.1213 25.3614 16.3586C25.3614 16.4366 25.3614 16.5173 25.3614 16.5953C25.2327 18.082 24.6567 19.124 23.9421 20.0253C23.6414 20.278 23.3654 20.554 23.1141 20.8533C22.1621 21.598 21.0647 22.1946 19.4474 22.2726C19.2301 22.2726 19.0141 22.2726 18.7961 22.2726C17.1827 22.21 16.1334 21.5853 15.1294 20.9133C14.8387 20.572 14.5121 20.2673 14.1827 19.968C13.5761 19.0173 12.9481 18.0853 12.8821 16.5953C12.8821 16.1993 12.8821 15.806 12.8821 15.4133C12.9521 13.9266 13.5721 12.9886 14.1827 12.0406C14.5294 11.718 14.8647 11.382 15.1881 11.0353C16.1787 10.4106 17.1927 9.80664 18.7361 9.73398ZM19.9194 11.036C19.4361 10.8826 18.7541 10.9006 18.2634 11.036C17.2114 11.148 16.5394 11.6373 15.8387 12.1013C15.5967 12.294 15.3801 12.51 15.1874 12.7526C14.6507 13.4973 14.2081 14.336 14.0634 15.4713C13.9647 15.672 13.9647 16.2786 14.0634 16.4766C14.1847 17.6586 14.6481 18.4946 15.1874 19.258C15.3801 19.5 15.5961 19.7166 15.8387 19.9093C16.5561 20.3726 17.2254 20.8886 18.3234 20.9746C18.3661 21.1073 18.6541 20.998 18.7961 21.032C18.8601 21.1306 19.3234 21.1306 19.3874 21.032C19.5474 20.9953 19.8574 21.1073 19.9201 20.9746C20.9681 20.8393 21.7441 20.4326 22.3447 19.8493C22.6154 19.7266 22.8134 19.5293 22.9374 19.258C24.5154 18.0233 24.5467 14.102 22.9961 12.81C22.9961 12.792 22.9961 12.7706 22.9961 12.7526C22.8241 12.5286 22.6261 12.3333 22.4047 12.1586C22.3854 12.1586 22.3654 12.1586 22.3447 12.1586C21.7474 11.572 20.9781 11.1606 19.9194 11.036Z" fill="#6C6C6C"/>
</svg>
