<svg width="28" height="28" viewBox="0 0 28 28" fill="none" xmlns="http://www.w3.org/2000/svg">
<path d="M22.5089 12.6697C22.5089 12.1652 22.1027 11.7589 21.5982 11.7589C21.0938 11.7589 20.6875 12.1652 20.6875 12.6697C20.6875 15.7947 17.8304 18.3348 14.317 18.3348C10.8036 18.3348 7.94643 15.7947 7.94643 12.6697C7.94643 12.1652 7.54018 11.7589 7.03571 11.7589C6.53125 11.7589 6.125 12.1652 6.125 12.6697C6.125 16.5179 9.31696 19.6964 13.4063 20.1116V22.6786H12.3527C11.8482 22.6786 11.442 23.0848 11.442 23.5893C11.442 24.0938 11.8482 24.5 12.3527 24.5H16.2812C16.7857 24.5 17.192 24.0938 17.192 23.5893C17.192 23.0848 16.7857 22.6786 16.2812 22.6786H15.2277V20.1116C19.317 19.6964 22.5089 16.5179 22.5089 12.6697Z" fill="#030395"/>
<path d="M14.3169 16.5759C16.5937 16.5759 18.4375 14.7321 18.4375 12.4554V6.74554C18.4375 4.46875 16.5937 2.625 14.3169 2.625C12.0402 2.625 10.1964 4.46875 10.1964 6.74554V12.4554C10.1964 14.7321 12.0402 16.5759 14.3169 16.5759ZM11.9821 6.74554C11.9821 5.45982 13.0312 4.41071 14.3169 4.41071C15.6027 4.41071 16.6518 5.45982 16.6518 6.74554V12.4554C16.6518 13.7411 15.6027 14.7902 14.3169 14.7902C13.0312 14.7902 11.9821 13.7411 11.9821 12.4554V6.74554Z" fill="#F06313"/>
</svg>
